<?xml version="1.0" encoding="utf-8"?>
<!-- Generator: Adobe Illustrator 16.0.0, SVG Export Plug-In . SVG Version: 6.00 Build 0)  -->
<!DOCTYPE svg PUBLIC "-//W3C//DTD SVG 1.1//EN" "http://www.w3.org/Graphics/SVG/1.1/DTD/svg11.dtd">
<svg version="1.1" xmlns="http://www.w3.org/2000/svg" xmlns:xlink="http://www.w3.org/1999/xlink" x="0px" y="0px" width="337px"
	 height="135px" viewBox="0 0 337 135" enable-background="new 0 0 337 135" xml:space="preserve">
<g id="Layer_1">
	<text transform="matrix(1 0 0 1 -238.4951 110.2539)"><tspan x="0" y="0" fill="#0078AE" font-family="'ApexNew-Book'" font-size="17.776" letter-spacing="2">BOR</tspan><tspan x="40.441" y="0" fill="#0078AE" font-family="'ApexNew-Book'" font-size="17.776" letter-spacing="2">N I</tspan><tspan x="66.334" y="0" fill="#0078AE" font-family="'ApexNew-Book'" font-size="17.776" letter-spacing="2">N</tspan><tspan x="80.375" y="0" fill="#0078AE" font-family="'ApexNew-Book'" font-size="17.776" letter-spacing="2"> T</tspan><tspan x="97.573" y="0" fill="#0078AE" font-family="'ApexNew-Book'" font-size="17.776" letter-spacing="2">HE</tspan><tspan x="123.695" y="0" fill="#0078AE" font-family="'ApexNew-Book'" font-size="17.776" letter-spacing="2"> </tspan><tspan x="128.831" y="0" fill="#0078AE" font-family="'ApexNew-Book'" font-size="17.776" letter-spacing="2">C</tspan><tspan x="141.805" y="0" fill="#0078AE" font-family="'ApexNew-Book'" font-size="17.776" letter-spacing="2">LO</tspan><tspan x="167.535" y="0" fill="#0078AE" font-family="'ApexNew-Book'" font-size="17.776" letter-spacing="2">U</tspan><tspan x="181.577" y="0" fill="#0078AE" font-family="'ApexNew-Book'" font-size="17.776">D</tspan></text>
	<path fill="#0078AE" d="M-223.38,57.078l-2.128,2.198c-1.789-1.699-3.543-2.549-5.254-2.549c-1.088,0-2.021,0.357-2.796,1.065
		c-0.776,0.712-1.162,1.541-1.162,2.489c0,0.835,0.317,1.634,0.955,2.389c0.635,0.774,1.972,1.681,4.01,2.725
		c2.482,1.279,4.17,2.506,5.063,3.682c0.875,1.192,1.312,2.539,1.312,4.026c0,2.103-0.746,3.89-2.24,5.345
		c-1.49,1.463-3.355,2.194-5.59,2.194c-1.495,0-2.918-0.322-4.273-0.962c-1.357-0.643-2.482-1.524-3.371-2.651l2.083-2.365
		c1.701,1.935,3.505,2.896,5.411,2.896c1.335,0,2.471-0.423,3.412-1.274c0.935-0.853,1.403-1.856,1.403-3.008
		c0-0.946-0.312-1.792-0.929-2.533c-0.622-0.725-2.021-1.647-4.199-2.75c-2.338-1.198-3.93-2.377-4.774-3.545
		c-0.844-1.162-1.263-2.493-1.263-3.991c0-1.954,0.672-3.574,2.017-4.874c1.347-1.289,3.046-1.933,5.1-1.933
		C-228.206,53.651-225.8,54.791-223.38,57.078"/>
	<path fill="#0078AE" d="M-207.344,53.651c3.959,0,7.241,1.431,9.844,4.294c2.365,2.614,3.55,5.702,3.55,9.274
		c0,3.583-1.251,6.715-3.751,9.402c-2.502,2.681-5.717,4.021-9.643,4.021c-3.945,0-7.169-1.341-9.671-4.021
		c-2.5-2.687-3.751-5.818-3.751-9.402c0-3.554,1.183-6.64,3.551-9.253C-214.613,55.091-211.323,53.651-207.344,53.651
		 M-207.357,56.906c-2.732,0-5.076,1.013-7.04,3.046c-1.96,2.034-2.941,4.492-2.941,7.377c0,1.857,0.449,3.595,1.343,5.202
		c0.896,1.604,2.103,2.85,3.624,3.722c1.524,0.872,3.195,1.307,5.014,1.307s3.49-0.435,5.011-1.307
		c1.524-0.872,2.733-2.118,3.627-3.722c0.894-1.607,1.341-3.345,1.341-5.202c0-2.885-0.984-5.343-2.953-7.377
		C-202.301,57.919-204.644,56.906-207.357,56.906"/>
	<rect x="-190.298" y="44.33" fill="#0078AE" width="3.34" height="35.695"/>
	<path fill="#0078AE" d="M-182.545,54.266l3.345,0.023v11.976c0,2.922,0.157,4.934,0.477,6.031c0.473,1.572,1.381,2.819,2.727,3.728
		c1.341,0.913,2.939,1.365,4.799,1.365c1.856,0,3.436-0.442,4.731-1.332c1.294-0.886,2.188-2.053,2.679-3.5
		c0.333-0.987,0.501-3.085,0.501-6.292V54.289l3.339-0.023v12.621c0,3.546-0.416,6.217-1.244,8.01
		c-0.833,1.799-2.085,3.207-3.751,4.221c-1.67,1.014-3.763,1.525-6.28,1.525c-2.516,0-4.614-0.512-6.299-1.525
		c-1.686-1.014-2.946-2.434-3.775-4.253c-0.83-1.824-1.247-4.56-1.247-8.216V54.266z"/>
	<polygon fill="#0078AE" points="-151.618,44.771 -148.277,44.771 -148.277,54.266 -143.004,54.266 -143.004,57.167 
		-148.277,57.167 -148.277,80.025 -151.618,80.025 -151.618,57.167 -156.102,57.167 -156.102,54.266 -151.618,54.266 	"/>
	<path fill="#0078AE" d="M-138.828,43.716c0.776,0,1.443,0.266,1.998,0.801c0.549,0.537,0.823,1.181,0.823,1.933
		c0,0.743-0.274,1.379-0.823,1.915c-0.555,0.535-1.222,0.8-1.998,0.8c-0.767,0-1.427-0.265-1.976-0.8
		c-0.552-0.536-0.829-1.172-0.829-1.915c0-0.752,0.277-1.396,0.829-1.933C-140.255,43.982-139.595,43.716-138.828,43.716
		 M-140.49,54.266h3.343v25.76h-3.343V54.266z"/>
	<path fill="#0078AE" d="M-120.104,53.651c3.961,0,7.238,1.431,9.848,4.294c2.365,2.614,3.545,5.702,3.545,9.274
		c0,3.583-1.25,6.715-3.746,9.402c-2.5,2.681-5.717,4.021-9.646,4.021c-3.945,0-7.169-1.341-9.668-4.021
		c-2.504-2.687-3.756-5.818-3.756-9.402c0-3.554,1.186-6.64,3.555-9.253C-127.37,55.091-124.08,53.651-120.104,53.651
		 M-120.115,56.906c-2.732,0-5.082,1.013-7.039,3.046c-1.963,2.034-2.938,4.492-2.938,7.377c0,1.857,0.444,3.595,1.341,5.202
		c0.892,1.604,2.102,2.85,3.625,3.722c1.521,0.872,3.191,1.307,5.012,1.307c1.816,0,3.488-0.435,5.014-1.307
		c1.521-0.872,2.729-2.118,3.623-3.722c0.895-1.607,1.343-3.345,1.343-5.202c0-2.885-0.989-5.343-2.954-7.377
		C-115.061,57.919-117.402,56.906-120.115,56.906"/>
	<path fill="#0078AE" d="M-102.531,54.266h3.346v4.61c1.311-1.759,2.77-3.074,4.359-3.935c1.6-0.863,3.332-1.289,5.217-1.289
		c1.906,0,3.604,0.488,5.084,1.461c1.475,0.977,2.564,2.296,3.273,3.953c0.701,1.65,1.055,4.232,1.055,7.726v13.234h-3.342V67.773
		c0-2.959-0.105-4.93-0.309-5.923c-0.324-1.696-1.033-2.981-2.115-3.836c-1.088-0.857-2.508-1.287-4.252-1.287
		c-2.003,0-3.789,0.66-5.373,1.985c-1.58,1.319-2.625,2.96-3.127,4.908c-0.32,1.274-0.471,3.6-0.471,6.986v9.419h-3.346V54.266z"/>
	<path fill="#0078AE" d="M-266.387,76.129c1.512,0.872,3.17,1.307,4.978,1.307c1.805,0,3.465-0.435,4.98-1.307
		c1.512-0.872,2.71-2.118,3.599-3.722c0.888-1.607,1.333-3.345,1.333-5.202c0-2.885-0.982-5.343-2.934-7.377
		c-1.957-2.033-4.283-3.046-6.978-3.046c-2.713,0-5.047,1.013-6.991,3.046c-1.95,2.034-2.919,4.492-2.919,7.377
		c0,1.857,0.442,3.595,1.332,5.202C-269.101,74.011-267.899,75.257-266.387,76.129z"/>
	<path fill="#0078AE" d="M-61.926,57.078l-2.129,2.198c-1.793-1.699-3.543-2.549-5.256-2.549c-1.088,0-2.021,0.357-2.795,1.065
		c-0.775,0.712-1.164,1.541-1.164,2.489c0,0.835,0.318,1.634,0.955,2.389c0.641,0.774,1.973,1.681,4.012,2.725
		c2.481,1.279,4.168,2.506,5.062,3.682c0.873,1.192,1.314,2.539,1.314,4.026c0,2.103-0.748,3.89-2.24,5.345
		c-1.492,1.463-3.359,2.194-5.592,2.194c-1.494,0-2.916-0.322-4.273-0.962c-1.357-0.643-2.48-1.524-3.369-2.651l2.082-2.365
		c1.701,1.935,3.504,2.896,5.413,2.896c1.333,0,2.468-0.423,3.407-1.274c0.936-0.853,1.406-1.856,1.406-3.008
		c0-0.946-0.311-1.792-0.928-2.533c-0.623-0.725-2.023-1.647-4.201-2.75c-2.34-1.198-3.932-2.377-4.771-3.545
		c-0.846-1.162-1.268-2.493-1.268-3.991c0-1.954,0.672-3.574,2.02-4.874c1.344-1.289,3.044-1.933,5.1-1.933
		C-66.754,53.651-64.35,54.791-61.926,57.078"/>
	<path fill="#0078AE" d="M-259.396,49.625c-1.605-11.892-11.79-21.064-24.122-21.064c-7.114,0-13.514,3.052-17.966,7.917
		c-2.142-1.693-4.842-2.711-7.785-2.711c-6.946,0-12.576,5.63-12.576,12.576c0,1.235,0.186,2.425,0.517,3.552
		c-9.546,2.441-16.603,10.474-16.603,19.942c0,11.389,10.205,20.707,22.678,20.707h40.439V54.37h3.339v3.804
		c0.094-0.11,0.177-0.224,0.274-0.332c2.585-2.875,5.853-4.315,9.803-4.315c3.934,0,7.19,1.431,9.781,4.294
		c2.349,2.614,3.521,5.702,3.521,9.273c0,3.585-1.241,6.716-3.72,9.403c-2.484,2.681-5.679,4.021-9.582,4.021
		c-3.919,0-7.121-1.341-9.603-4.021c-0.168-0.182-0.317-0.371-0.474-0.557v14.604h7.179c12.472,0,22.677-9.318,22.677-20.707
		C-241.618,59.983-249.259,51.685-259.396,49.625z M-279.571,80.003h-3.343v-25.76h3.343V80.003z M-279.254,48.342
		c-0.555,0.535-1.222,0.8-1.998,0.8c-0.767,0-1.427-0.265-1.976-0.8c-0.551-0.536-0.829-1.172-0.829-1.915
		c0-0.752,0.278-1.396,0.829-1.933c0.549-0.535,1.209-0.801,1.976-0.801c0.776,0,1.443,0.266,1.998,0.801
		c0.549,0.537,0.823,1.181,0.823,1.933C-278.431,47.17-278.705,47.806-279.254,48.342z"/>
	<text transform="matrix(1 0 0 1 118.5049 110.2539)"><tspan x="0" y="0" fill="#FFFFFF" font-family="'ApexNew-Book'" font-size="17.776" letter-spacing="2">BOR</tspan><tspan x="40.44" y="0" fill="#FFFFFF" font-family="'ApexNew-Book'" font-size="17.776" letter-spacing="2">N I</tspan><tspan x="66.334" y="0" fill="#FFFFFF" font-family="'ApexNew-Book'" font-size="17.776" letter-spacing="2">N</tspan><tspan x="80.375" y="0" fill="#FFFFFF" font-family="'ApexNew-Book'" font-size="17.776" letter-spacing="2"> T</tspan><tspan x="97.573" y="0" fill="#FFFFFF" font-family="'ApexNew-Book'" font-size="17.776" letter-spacing="2">HE</tspan><tspan x="123.695" y="0" fill="#FFFFFF" font-family="'ApexNew-Book'" font-size="17.776" letter-spacing="2"> </tspan><tspan x="128.831" y="0" fill="#FFFFFF" font-family="'ApexNew-Book'" font-size="17.776" letter-spacing="2">C</tspan><tspan x="141.805" y="0" fill="#FFFFFF" font-family="'ApexNew-Book'" font-size="17.776" letter-spacing="2">LO</tspan><tspan x="167.535" y="0" fill="#FFFFFF" font-family="'ApexNew-Book'" font-size="17.776" letter-spacing="2">U</tspan><tspan x="181.577" y="0" fill="#FFFFFF" font-family="'ApexNew-Book'" font-size="17.776">D</tspan></text>
	<path fill="#FFFFFF" d="M133.619,57.078l-2.127,2.198c-1.789-1.699-3.543-2.549-5.254-2.549c-1.089,0-2.021,0.357-2.797,1.065
		c-0.775,0.712-1.162,1.541-1.162,2.489c0,0.835,0.317,1.634,0.955,2.389c0.635,0.774,1.973,1.681,4.01,2.725
		c2.482,1.279,4.17,2.506,5.063,3.682c0.875,1.192,1.312,2.539,1.312,4.026c0,2.103-0.746,3.89-2.24,5.345
		c-1.489,1.463-3.354,2.194-5.59,2.194c-1.494,0-2.918-0.322-4.272-0.962c-1.356-0.643-2.481-1.524-3.371-2.651l2.083-2.365
		c1.701,1.935,3.505,2.896,5.411,2.896c1.335,0,2.471-0.423,3.412-1.274c0.935-0.853,1.403-1.856,1.403-3.008
		c0-0.946-0.312-1.792-0.93-2.533c-0.621-0.725-2.021-1.647-4.199-2.75c-2.338-1.198-3.93-2.377-4.773-3.545
		c-0.844-1.162-1.264-2.493-1.264-3.991c0-1.954,0.672-3.574,2.018-4.874c1.348-1.289,3.046-1.933,5.1-1.933
		C128.795,53.651,131.199,54.791,133.619,57.078"/>
	<path fill="#FFFFFF" d="M149.656,53.651c3.959,0,7.24,1.431,9.844,4.294c2.365,2.614,3.55,5.702,3.55,9.274
		c0,3.583-1.251,6.715-3.751,9.402c-2.502,2.681-5.717,4.021-9.643,4.021c-3.945,0-7.17-1.341-9.672-4.021
		c-2.5-2.687-3.751-5.818-3.751-9.402c0-3.554,1.183-6.64,3.552-9.253C142.387,55.091,145.677,53.651,149.656,53.651
		 M149.643,56.906c-2.732,0-5.076,1.013-7.04,3.046c-1.96,2.034-2.94,4.492-2.94,7.377c0,1.857,0.448,3.595,1.342,5.202
		c0.896,1.604,2.104,2.85,3.625,3.722c1.523,0.872,3.195,1.307,5.014,1.307s3.49-0.435,5.012-1.307
		c1.523-0.872,2.732-2.118,3.627-3.722c0.894-1.607,1.34-3.345,1.34-5.202c0-2.885-0.983-5.343-2.953-7.377
		C154.699,57.919,152.356,56.906,149.643,56.906"/>
	<rect x="166.702" y="44.33" fill="#FFFFFF" width="3.34" height="35.695"/>
	<path fill="#FFFFFF" d="M174.455,54.266l3.345,0.023v11.976c0,2.922,0.157,4.934,0.477,6.031c0.473,1.572,1.381,2.819,2.727,3.728
		c1.341,0.913,2.939,1.365,4.799,1.365c1.856,0,3.436-0.442,4.731-1.332c1.294-0.886,2.188-2.053,2.679-3.5
		c0.333-0.987,0.501-3.085,0.501-6.292V54.289l3.339-0.023v12.621c0,3.546-0.416,6.217-1.244,8.01
		c-0.833,1.799-2.085,3.207-3.751,4.221c-1.67,1.014-3.763,1.525-6.28,1.525c-2.516,0-4.614-0.512-6.299-1.525
		c-1.686-1.014-2.946-2.434-3.775-4.253c-0.83-1.824-1.247-4.56-1.247-8.216V54.266z"/>
	<polygon fill="#FFFFFF" points="205.382,44.771 208.723,44.771 208.723,54.266 213.996,54.266 213.996,57.167 208.723,57.167 
		208.723,80.025 205.382,80.025 205.382,57.167 200.898,57.167 200.898,54.266 205.382,54.266 	"/>
	<path fill="#FFFFFF" d="M218.172,43.716c0.776,0,1.443,0.266,1.998,0.801c0.549,0.537,0.823,1.181,0.823,1.933
		c0,0.743-0.274,1.379-0.823,1.915c-0.555,0.535-1.222,0.8-1.998,0.8c-0.767,0-1.427-0.265-1.976-0.8
		c-0.552-0.536-0.829-1.172-0.829-1.915c0-0.752,0.277-1.396,0.829-1.933C216.745,43.982,217.405,43.716,218.172,43.716
		 M216.51,54.266h3.343v25.76h-3.343V54.266z"/>
	<path fill="#FFFFFF" d="M236.896,53.651c3.961,0,7.238,1.431,9.848,4.294c2.365,2.614,3.545,5.702,3.545,9.274
		c0,3.583-1.25,6.715-3.746,9.402c-2.5,2.681-5.717,4.021-9.646,4.021c-3.945,0-7.169-1.341-9.668-4.021
		c-2.504-2.687-3.756-5.818-3.756-9.402c0-3.554,1.186-6.64,3.555-9.253C229.63,55.091,232.92,53.651,236.896,53.651
		 M236.885,56.906c-2.732,0-5.082,1.013-7.039,3.046c-1.963,2.034-2.938,4.492-2.938,7.377c0,1.857,0.444,3.595,1.341,5.202
		c0.892,1.604,2.102,2.85,3.625,3.722c1.521,0.872,3.191,1.307,5.012,1.307c1.816,0,3.488-0.435,5.014-1.307
		c1.521-0.872,2.729-2.118,3.623-3.722c0.895-1.607,1.343-3.345,1.343-5.202c0-2.885-0.989-5.343-2.954-7.377
		C241.939,57.919,239.598,56.906,236.885,56.906"/>
	<path fill="#FFFFFF" d="M254.469,54.266h3.346v4.61c1.311-1.759,2.77-3.074,4.359-3.935c1.6-0.863,3.332-1.289,5.217-1.289
		c1.906,0,3.604,0.488,5.084,1.461c1.475,0.977,2.564,2.296,3.273,3.953c0.701,1.65,1.055,4.232,1.055,7.726v13.234h-3.342V67.773
		c0-2.959-0.105-4.93-0.309-5.923c-0.324-1.696-1.033-2.981-2.115-3.836c-1.088-0.857-2.508-1.287-4.252-1.287
		c-2.003,0-3.789,0.66-5.373,1.985c-1.58,1.319-2.625,2.96-3.127,4.908c-0.32,1.274-0.471,3.6-0.471,6.986v9.419h-3.346V54.266z"/>
	<path fill="#FFFFFF" d="M90.613,76.129c1.512,0.872,3.17,1.307,4.979,1.307c1.805,0,3.465-0.435,4.979-1.307
		c1.513-0.872,2.71-2.118,3.599-3.722c0.889-1.607,1.334-3.345,1.334-5.202c0-2.885-0.982-5.343-2.935-7.377
		c-1.957-2.033-4.282-3.046-6.978-3.046c-2.713,0-5.047,1.013-6.991,3.046c-1.95,2.034-2.919,4.492-2.919,7.377
		c0,1.857,0.441,3.595,1.332,5.202C87.899,74.011,89.101,75.257,90.613,76.129z"/>
	<path fill="#FFFFFF" d="M295.074,57.078l-2.129,2.198c-1.793-1.699-3.543-2.549-5.256-2.549c-1.088,0-2.021,0.357-2.795,1.065
		c-0.775,0.712-1.164,1.541-1.164,2.489c0,0.835,0.318,1.634,0.955,2.389c0.641,0.774,1.973,1.681,4.012,2.725
		c2.481,1.279,4.168,2.506,5.062,3.682c0.873,1.192,1.314,2.539,1.314,4.026c0,2.103-0.748,3.89-2.24,5.345
		c-1.492,1.463-3.359,2.194-5.592,2.194c-1.494,0-2.916-0.322-4.273-0.962c-1.357-0.643-2.48-1.524-3.369-2.651l2.082-2.365
		c1.701,1.935,3.504,2.896,5.413,2.896c1.333,0,2.468-0.423,3.407-1.274c0.936-0.853,1.406-1.856,1.406-3.008
		c0-0.946-0.311-1.792-0.928-2.533c-0.623-0.725-2.023-1.647-4.201-2.75c-2.34-1.198-3.932-2.377-4.771-3.545
		c-0.846-1.162-1.268-2.493-1.268-3.991c0-1.954,0.672-3.574,2.02-4.874c1.344-1.289,3.044-1.933,5.1-1.933
		C290.246,53.651,292.65,54.791,295.074,57.078"/>
	<path fill="#FFFFFF" d="M97.604,49.625c-1.604-11.892-11.789-21.064-24.121-21.064c-7.113,0-13.514,3.052-17.966,7.917
		c-2.142-1.693-4.843-2.711-7.784-2.711c-6.947,0-12.576,5.63-12.576,12.576c0,1.235,0.186,2.425,0.517,3.552
		C26.127,52.336,19.07,60.368,19.07,69.837c0,11.389,10.205,20.707,22.678,20.707h40.439V54.37h3.339v3.804
		c0.095-0.11,0.177-0.224,0.274-0.332c2.584-2.875,5.853-4.315,9.803-4.315c3.934,0,7.189,1.431,9.781,4.294
		c2.349,2.614,3.521,5.702,3.521,9.273c0,3.585-1.241,6.716-3.72,9.403c-2.484,2.681-5.68,4.021-9.582,4.021
		c-3.919,0-7.121-1.341-9.604-4.021c-0.168-0.182-0.316-0.371-0.474-0.557v14.604h7.179c12.473,0,22.678-9.318,22.678-20.707
		C115.383,59.983,107.741,51.685,97.604,49.625z M77.43,80.003h-3.344v-25.76h3.344V80.003z M77.746,48.342
		c-0.555,0.535-1.223,0.8-1.998,0.8c-0.768,0-1.428-0.265-1.977-0.8c-0.551-0.536-0.828-1.172-0.828-1.915
		c0-0.752,0.277-1.396,0.828-1.933c0.549-0.535,1.209-0.801,1.977-0.801c0.775,0,1.443,0.266,1.998,0.801
		c0.549,0.537,0.822,1.181,0.822,1.933C78.568,47.17,78.295,47.806,77.746,48.342z"/>
	<g>
		<path fill="#0078AE" d="M-406.113,70.129c1.513,0.872,3.17,1.307,4.979,1.307c1.805,0,3.465-0.435,4.979-1.307
			c1.513-0.872,2.71-2.118,3.6-3.722c0.888-1.607,1.333-3.345,1.333-5.202c0-2.885-0.982-5.343-2.935-7.377
			c-1.957-2.033-4.282-3.046-6.978-3.046c-2.713,0-5.047,1.013-6.991,3.046c-1.95,2.034-2.919,4.492-2.919,7.377
			c0,1.857,0.442,3.595,1.332,5.202C-408.827,68.011-407.626,69.257-406.113,70.129z"/>
		<path fill="#0078AE" d="M-399.122,43.625c-1.605-11.893-11.79-21.064-24.122-21.064c-7.113,0-13.514,3.053-17.966,7.917
			c-2.142-1.692-4.842-2.711-7.784-2.711c-6.946,0-12.576,5.63-12.576,12.576c0,1.235,0.186,2.425,0.517,3.552
			c-9.546,2.441-16.603,10.474-16.603,19.942c0,11.389,10.205,20.707,22.679,20.707h40.438V48.37h3.339v3.804
			c0.095-0.109,0.178-0.224,0.274-0.332c2.585-2.875,5.853-4.314,9.803-4.314c3.935,0,7.19,1.431,9.781,4.294
			c2.349,2.614,3.521,5.702,3.521,9.272c0,3.586-1.24,6.717-3.72,9.403c-2.484,2.681-5.679,4.021-9.582,4.021
			c-3.919,0-7.121-1.341-9.603-4.021c-0.168-0.182-0.317-0.371-0.475-0.557v14.604h7.179c12.473,0,22.678-9.318,22.678-20.707
			C-381.344,53.983-388.985,45.685-399.122,43.625z M-419.297,74.003h-3.344v-25.76h3.344V74.003z M-418.98,42.342
			c-0.555,0.535-1.222,0.801-1.998,0.801c-0.767,0-1.427-0.266-1.976-0.801c-0.551-0.535-0.829-1.172-0.829-1.915
			c0-0.752,0.278-1.396,0.829-1.933c0.549-0.535,1.209-0.801,1.976-0.801c0.776,0,1.443,0.266,1.998,0.801
			c0.549,0.537,0.823,1.181,0.823,1.933C-418.157,41.17-418.432,41.807-418.98,42.342z"/>
	</g>
	<rect x="13.667" y="-29.333" fill="none" width="107.333" height="22"/>
	<text transform="matrix(1 0 0 1 13.667 -20.813)" font-family="'MyriadPro-Regular'" font-size="12">LOGO WHITE</text>
</g>
<g id="Layer_2">
</g>
</svg>
