<?xml version="1.0" encoding="utf-8"?>
<!-- Generator: Adobe Illustrator 16.0.0, SVG Export Plug-In . SVG Version: 6.00 Build 0)  -->
<!DOCTYPE svg PUBLIC "-//W3C//DTD SVG 1.1//EN" "http://www.w3.org/Graphics/SVG/1.1/DTD/svg11.dtd">
<svg version="1.1" id="Layer_1" xmlns="http://www.w3.org/2000/svg" xmlns:xlink="http://www.w3.org/1999/xlink" x="0px" y="0px"
	 width="337px" height="135px" viewBox="357 0 337 135" enable-background="new 357 0 337 135" xml:space="preserve">
<g enable-background="new    ">
	<path fill="#0078AE" d="M476.842,110.254V96.922h4.214c1.46,0,2.515,0.32,3.167,0.959c0.651,0.64,0.978,1.494,0.978,2.565
		c0,0.602-0.151,1.154-0.454,1.657c-0.303,0.504-0.735,0.874-1.299,1.111c0.726,0.19,1.273,0.595,1.643,1.211
		s0.553,1.309,0.553,2.078c0,1.141-0.352,2.05-1.056,2.73c-0.704,0.68-1.841,1.02-3.409,1.02H476.842z M478.048,102.755h3.325
		c1.672,0,2.508-0.77,2.508-2.309c0-0.712-0.187-1.291-0.561-1.736c-0.373-0.445-1.071-0.668-2.096-0.668h-3.177V102.755z
		 M478.048,109.134h3.29c1.99,0,2.985-0.876,2.985-2.63c0-0.914-0.226-1.581-0.677-2c-0.451-0.42-1.209-0.63-2.273-0.63h-3.325
		V109.134z"/>
	<path fill="#0078AE" d="M489.586,105.649c-0.063-0.593-0.096-1.28-0.096-2.062s0.032-1.468,0.096-2.062
		c0.064-0.593,0.2-1.203,0.408-1.831c0.209-0.628,0.488-1.146,0.838-1.554s0.833-0.742,1.449-1.003
		c0.617-0.26,1.346-0.391,2.188-0.391s1.57,0.131,2.186,0.391c0.614,0.261,1.096,0.595,1.445,1.003s0.627,0.926,0.832,1.554
		s0.34,1.238,0.406,1.831c0.066,0.594,0.1,1.28,0.1,2.062s-0.033,1.469-0.1,2.062s-0.201,1.203-0.406,1.831
		s-0.482,1.146-0.832,1.554c-0.35,0.408-0.831,0.742-1.445,1.003c-0.615,0.26-1.344,0.391-2.186,0.391s-1.57-0.131-2.188-0.391
		c-0.616-0.261-1.1-0.595-1.449-1.003c-0.35-0.407-0.629-0.926-0.838-1.554C489.786,106.853,489.65,106.242,489.586,105.649z
		 M490.841,101.748c-0.05,0.515-0.073,1.128-0.073,1.84s0.023,1.325,0.073,1.84c0.049,0.516,0.15,1.03,0.304,1.545
		c0.153,0.516,0.363,0.934,0.629,1.255s0.625,0.581,1.076,0.781c0.451,0.199,0.991,0.299,1.619,0.299s1.168-0.1,1.619-0.299
		c0.451-0.2,0.81-0.46,1.076-0.781c0.266-0.321,0.476-0.739,0.629-1.255c0.153-0.515,0.253-1.029,0.299-1.545
		c0.047-0.515,0.07-1.128,0.07-1.84s-0.023-1.325-0.07-1.84c-0.046-0.516-0.146-1.03-0.299-1.545
		c-0.153-0.516-0.363-0.934-0.629-1.255c-0.267-0.32-0.625-0.581-1.076-0.781c-0.451-0.199-0.991-0.299-1.619-0.299
		s-1.168,0.1-1.619,0.299c-0.451,0.2-0.811,0.461-1.076,0.781c-0.266,0.321-0.476,0.739-0.629,1.255
		C490.991,100.718,490.89,101.232,490.841,101.748z"/>
	<path fill="#0078AE" d="M503.834,110.254V96.922h4.175c1.584,0,2.707,0.32,3.367,0.959c0.66,0.64,0.99,1.569,0.99,2.791
		c0,1.933-0.82,3.113-2.457,3.541l3.186,6.041h-1.406l-2.986-5.851c-0.133,0.012-0.33,0.018-0.59,0.018h-3.073v5.833H503.834z
		 M505.039,103.302h3.29c1.076,0,1.799-0.228,2.166-0.682s0.551-1.103,0.551-1.944s-0.184-1.491-0.551-1.948
		s-1.09-0.686-2.166-0.686h-3.29V103.302z"/>
</g>
<g enable-background="new    ">
	<path fill="#0078AE" d="M517.282,110.254V96.922h0.902l7.161,10.858l-0.035-10.858h1.207v13.332h-0.905l-7.159-10.858l0.035,10.858
		H517.282z"/>
	<path fill="#0078AE" d="M536.549,110.254V96.922h1.24v13.332H536.549z"/>
</g>
<g enable-background="new    ">
	<path fill="#0078AE" d="M543.176,110.254V96.922h0.902l7.16,10.858l-0.034-10.858h1.206v13.332h-0.904l-7.158-10.858l0.034,10.858
		H543.176z"/>
</g>
<g enable-background="new    ">
	<path fill="#0078AE" d="M561.057,98.042v-1.12h8.566v1.12h-3.68v12.212h-1.207V98.042H561.057z"/>
</g>
<g enable-background="new    ">
	<path fill="#0078AE" d="M574.415,110.254V96.922h1.206v5.833h6.648v-5.833h1.207v13.332h-1.207v-6.38h-6.648v6.38H574.415z"/>
	<path fill="#0078AE" d="M588.133,110.254V96.922h7.725v1.12h-6.52v4.713h5.902v1.119h-5.902v5.26h6.52v1.12H588.133z"/>
</g>
<g enable-background="new    ">
	<path fill="#0078AE" d="M605.668,106.27c-0.176-0.792-0.265-1.687-0.265-2.682s0.089-1.89,0.265-2.682
		c0.177-0.793,0.461-1.511,0.852-2.153c0.391-0.642,0.936-1.137,1.635-1.483c0.701-0.348,1.531-0.521,2.492-0.521
		c1.365,0,2.52,0.206,3.463,0.616v1.189c-1.129-0.457-2.269-0.686-3.42-0.686c-0.012,0-0.025,0-0.043,0
		c-1.377,0-2.383,0.518-3.017,1.554s-0.95,2.425-0.95,4.166c0,1.742,0.316,3.131,0.95,4.166c0.634,1.036,1.64,1.554,3.017,1.554
		c1.174,0,2.328-0.229,3.463-0.686v1.189c-0.938,0.411-2.074,0.616-3.411,0.616c-0.018,0-0.034,0-0.052,0
		c-0.961,0-1.791-0.174-2.492-0.521c-0.699-0.347-1.244-0.842-1.635-1.483C606.129,107.78,605.845,107.062,605.668,106.27z"/>
</g>
<g enable-background="new    ">
	<path fill="#0078AE" d="M618.646,110.254V96.922h1.207v12.212h6.171v1.12H618.646z"/>
	<path fill="#0078AE" d="M628.996,105.649c-0.064-0.593-0.096-1.28-0.096-2.062s0.031-1.468,0.096-2.062
		c0.063-0.593,0.199-1.203,0.408-1.831c0.208-0.628,0.487-1.146,0.838-1.554c0.35-0.408,0.832-0.742,1.449-1.003
		c0.616-0.26,1.346-0.391,2.188-0.391s1.57,0.131,2.185,0.391c0.614,0.261,1.097,0.595,1.446,1.003s0.626,0.926,0.831,1.554
		s0.341,1.238,0.407,1.831c0.066,0.594,0.1,1.28,0.1,2.062s-0.033,1.469-0.1,2.062s-0.202,1.203-0.407,1.831
		s-0.481,1.146-0.831,1.554c-0.35,0.408-0.832,0.742-1.446,1.003c-0.614,0.26-1.343,0.391-2.185,0.391s-1.571-0.131-2.188-0.391
		c-0.617-0.261-1.1-0.595-1.449-1.003c-0.351-0.407-0.63-0.926-0.838-1.554C629.195,106.853,629.06,106.242,628.996,105.649z
		 M630.25,101.748c-0.049,0.515-0.073,1.128-0.073,1.84s0.024,1.325,0.073,1.84c0.049,0.516,0.15,1.03,0.305,1.545
		c0.152,0.516,0.362,0.934,0.629,1.255c0.266,0.321,0.625,0.581,1.076,0.781c0.451,0.199,0.99,0.299,1.619,0.299
		c0.627,0,1.167-0.1,1.618-0.299c0.452-0.2,0.81-0.46,1.076-0.781s0.476-0.739,0.63-1.255c0.152-0.515,0.252-1.029,0.299-1.545
		c0.047-0.515,0.07-1.128,0.07-1.84s-0.023-1.325-0.07-1.84c-0.047-0.516-0.146-1.03-0.299-1.545
		c-0.154-0.516-0.363-0.934-0.63-1.255c-0.267-0.32-0.624-0.581-1.076-0.781c-0.451-0.199-0.991-0.299-1.618-0.299
		c-0.629,0-1.168,0.1-1.619,0.299c-0.451,0.2-0.811,0.461-1.076,0.781c-0.267,0.321-0.477,0.739-0.629,1.255
		C630.4,100.718,630.299,101.232,630.25,101.748z"/>
</g>
<g enable-background="new    ">
	<path fill="#0078AE" d="M644.281,106.079v-9.157h1.207v8.957c0,2.286,1.168,3.429,3.506,3.429s3.507-1.143,3.507-3.429v-8.957
		h1.206v9.157c0,0.724-0.115,1.356-0.348,1.9c-0.231,0.544-0.514,0.968-0.847,1.271c-0.333,0.305-0.727,0.55-1.181,0.738
		c-0.455,0.188-0.863,0.308-1.226,0.36c-0.362,0.052-0.733,0.078-1.112,0.078s-0.75-0.026-1.111-0.078
		c-0.361-0.053-0.77-0.172-1.227-0.36c-0.456-0.188-0.851-0.434-1.184-0.738c-0.332-0.304-0.613-0.728-0.845-1.271
		S644.281,106.803,644.281,106.079z"/>
</g>
<g enable-background="new    ">
	<path fill="#0078AE" d="M658.419,110.254V96.922h3.619c1.054,0,1.954,0.166,2.704,0.499c0.749,0.333,1.33,0.811,1.744,1.433
		s0.713,1.317,0.898,2.087s0.277,1.652,0.277,2.647s-0.092,1.878-0.277,2.647s-0.484,1.466-0.898,2.087
		c-0.414,0.622-0.995,1.1-1.744,1.433c-0.75,0.333-1.65,0.499-2.704,0.499H658.419z M659.625,109.134h2.491
		c2.847,0,4.271-1.846,4.271-5.537c0-3.703-1.424-5.555-4.271-5.555h-2.491V109.134z"/>
</g>
<path fill="#0078AE" d="M490.619,57.078l-2.127,2.198c-1.789-1.699-3.543-2.549-5.254-2.549c-1.09,0-2.021,0.357-2.797,1.065
	c-0.775,0.712-1.162,1.541-1.162,2.489c0,0.835,0.316,1.634,0.955,2.389c0.635,0.774,1.973,1.681,4.01,2.725
	c2.482,1.279,4.17,2.506,5.062,3.682c0.875,1.192,1.312,2.539,1.312,4.026c0,2.103-0.746,3.89-2.24,5.345
	c-1.488,1.463-3.354,2.194-5.59,2.194c-1.494,0-2.918-0.322-4.271-0.963c-1.356-0.643-2.481-1.523-3.371-2.65l2.082-2.365
	c1.701,1.936,3.506,2.896,5.412,2.896c1.334,0,2.471-0.424,3.411-1.274c0.935-0.853,1.403-1.856,1.403-3.009
	c0-0.945-0.312-1.791-0.93-2.532c-0.621-0.726-2.021-1.647-4.199-2.75c-2.338-1.198-3.93-2.377-4.773-3.545
	c-0.844-1.162-1.264-2.493-1.264-3.991c0-1.954,0.672-3.574,2.018-4.874c1.348-1.289,3.047-1.933,5.101-1.933
	C485.795,53.651,488.199,54.791,490.619,57.078"/>
<path fill="#0078AE" d="M506.656,53.651c3.959,0,7.24,1.431,9.844,4.294c2.365,2.614,3.55,5.702,3.55,9.274
	c0,3.583-1.251,6.715-3.751,9.402c-2.502,2.681-5.717,4.021-9.643,4.021c-3.945,0-7.17-1.342-9.672-4.021
	c-2.5-2.688-3.752-5.818-3.752-9.402c0-3.554,1.184-6.64,3.553-9.253C499.387,55.091,502.677,53.651,506.656,53.651 M506.643,56.906
	c-2.731,0-5.076,1.013-7.039,3.046c-1.961,2.034-2.94,4.492-2.94,7.377c0,1.856,0.448,3.595,1.342,5.202
	c0.896,1.604,2.104,2.85,3.625,3.722c1.522,0.872,3.195,1.308,5.015,1.308c1.818,0,3.489-0.436,5.012-1.308
	c1.523-0.872,2.732-2.118,3.627-3.722c0.894-1.607,1.34-3.346,1.34-5.202c0-2.885-0.982-5.343-2.953-7.377
	C511.699,57.919,509.355,56.906,506.643,56.906"/>
<rect x="523.702" y="44.33" fill="#0078AE" width="3.34" height="35.695"/>
<path fill="#0078AE" d="M531.455,54.266l3.345,0.023v11.976c0,2.922,0.157,4.934,0.478,6.031c0.473,1.572,1.381,2.819,2.727,3.728
	c1.342,0.914,2.939,1.365,4.799,1.365c1.856,0,3.437-0.441,4.731-1.332c1.294-0.886,2.188-2.053,2.679-3.5
	c0.333-0.986,0.501-3.084,0.501-6.292V54.289l3.339-0.023v12.621c0,3.546-0.416,6.216-1.244,8.009
	c-0.832,1.799-2.084,3.207-3.75,4.222c-1.67,1.014-3.764,1.524-6.281,1.524c-2.516,0-4.613-0.512-6.299-1.524
	c-1.686-1.015-2.945-2.435-3.774-4.253c-0.83-1.824-1.247-4.561-1.247-8.216V54.266H531.455z"/>
<polygon fill="#0078AE" points="562.382,44.771 565.723,44.771 565.723,54.266 570.996,54.266 570.996,57.167 565.723,57.167 
	565.723,80.025 562.382,80.025 562.382,57.167 557.898,57.167 557.898,54.266 562.382,54.266 "/>
<path fill="#0078AE" d="M575.172,43.716c0.776,0,1.443,0.266,1.998,0.801c0.549,0.537,0.823,1.181,0.823,1.933
	c0,0.743-0.274,1.379-0.823,1.915c-0.555,0.535-1.222,0.8-1.998,0.8c-0.768,0-1.427-0.265-1.977-0.8
	c-0.551-0.536-0.828-1.172-0.828-1.915c0-0.752,0.277-1.396,0.828-1.933C573.745,43.982,574.404,43.716,575.172,43.716
	 M573.51,54.266h3.344v25.759h-3.344V54.266z"/>
<path fill="#0078AE" d="M593.896,53.651c3.961,0,7.237,1.431,9.848,4.294c2.365,2.614,3.545,5.702,3.545,9.274
	c0,3.583-1.25,6.715-3.746,9.402c-2.5,2.681-5.717,4.021-9.646,4.021c-3.944,0-7.168-1.342-9.668-4.021
	c-2.504-2.688-3.756-5.818-3.756-9.402c0-3.554,1.187-6.64,3.555-9.253C586.63,55.091,589.92,53.651,593.896,53.651 M593.885,56.906
	c-2.732,0-5.082,1.013-7.039,3.046c-1.963,2.034-2.938,4.492-2.938,7.377c0,1.856,0.443,3.595,1.341,5.202
	c0.892,1.604,2.103,2.85,3.625,3.722c1.521,0.872,3.19,1.308,5.012,1.308c1.816,0,3.488-0.436,5.015-1.308
	c1.521-0.872,2.729-2.118,3.623-3.722c0.895-1.607,1.343-3.346,1.343-5.202c0-2.885-0.989-5.343-2.954-7.377
	C598.939,57.919,596.598,56.906,593.885,56.906"/>
<path fill="#0078AE" d="M611.469,54.266h3.346v4.61c1.312-1.759,2.771-3.074,4.359-3.935c1.6-0.863,3.332-1.289,5.217-1.289
	c1.906,0,3.604,0.488,5.084,1.461c1.476,0.977,2.564,2.296,3.273,3.953c0.701,1.65,1.055,4.232,1.055,7.726v13.233h-3.342V67.773
	c0-2.959-0.105-4.93-0.309-5.923c-0.324-1.696-1.033-2.981-2.115-3.836c-1.088-0.857-2.508-1.287-4.252-1.287
	c-2.003,0-3.789,0.66-5.373,1.985c-1.58,1.319-2.625,2.96-3.127,4.908c-0.32,1.274-0.471,3.6-0.471,6.985v9.42h-3.346V54.266
	L611.469,54.266z"/>
<path fill="#0078AE" d="M447.613,76.129c1.512,0.872,3.17,1.307,4.979,1.307c1.805,0,3.465-0.435,4.979-1.307s2.711-2.118,3.6-3.722
	c0.889-1.607,1.334-3.345,1.334-5.202c0-2.885-0.982-5.343-2.936-7.377c-1.957-2.033-4.281-3.046-6.978-3.046
	c-2.713,0-5.047,1.013-6.991,3.046c-1.949,2.034-2.918,4.492-2.918,7.377c0,1.857,0.44,3.595,1.332,5.202
	C444.898,74.011,446.102,75.257,447.613,76.129z"/>
<path fill="#0078AE" d="M652.074,57.078l-2.129,2.198c-1.793-1.699-3.543-2.549-5.256-2.549c-1.088,0-2.021,0.357-2.795,1.065
	c-0.775,0.712-1.164,1.541-1.164,2.489c0,0.835,0.317,1.634,0.955,2.389c0.641,0.774,1.973,1.681,4.012,2.725
	c2.48,1.279,4.168,2.506,5.062,3.682c0.873,1.192,1.313,2.539,1.313,4.026c0,2.103-0.747,3.89-2.239,5.345
	c-1.492,1.463-3.358,2.194-5.592,2.194c-1.494,0-2.916-0.322-4.273-0.963c-1.356-0.643-2.479-1.523-3.368-2.65l2.082-2.365
	c1.7,1.936,3.504,2.896,5.412,2.896c1.333,0,2.469-0.424,3.407-1.274c0.937-0.853,1.406-1.856,1.406-3.009
	c0-0.945-0.312-1.791-0.929-2.532c-0.623-0.726-2.022-1.647-4.201-2.75c-2.34-1.198-3.932-2.377-4.771-3.545
	c-0.846-1.162-1.269-2.493-1.269-3.991c0-1.954,0.673-3.574,2.021-4.874c1.345-1.289,3.044-1.933,5.101-1.933
	C647.246,53.651,649.65,54.791,652.074,57.078"/>
<path fill="#0078AE" d="M454.604,49.625C453,37.733,442.814,28.561,430.482,28.561c-7.112,0-13.514,3.052-17.965,7.917
	c-2.143-1.693-4.844-2.711-7.785-2.711c-6.946,0-12.575,5.63-12.575,12.576c0,1.235,0.186,2.425,0.517,3.552
	c-9.547,2.441-16.604,10.473-16.604,19.942c0,11.39,10.205,20.707,22.678,20.707h40.439V54.37h3.338v3.804
	c0.096-0.11,0.178-0.224,0.274-0.332c2.584-2.875,5.853-4.315,9.804-4.315c3.934,0,7.188,1.431,9.78,4.294
	c2.349,2.614,3.521,5.702,3.521,9.273c0,3.586-1.24,6.717-3.719,9.403c-2.484,2.681-5.681,4.021-9.582,4.021
	c-3.92,0-7.121-1.341-9.604-4.021c-0.168-0.183-0.315-0.371-0.474-0.558v14.604h7.179c12.473,0,22.678-9.317,22.678-20.707
	C472.383,59.983,464.741,51.685,454.604,49.625z M434.43,80.003h-3.344v-25.76h3.344V80.003z M434.746,48.342
	c-0.555,0.535-1.223,0.8-1.998,0.8c-0.768,0-1.428-0.265-1.977-0.8c-0.551-0.536-0.828-1.172-0.828-1.915
	c0-0.752,0.277-1.396,0.828-1.933c0.549-0.535,1.209-0.801,1.977-0.801c0.775,0,1.443,0.266,1.998,0.801
	c0.549,0.537,0.822,1.181,0.822,1.933C435.568,47.17,435.295,47.806,434.746,48.342z"/>
</svg>
