<?xml version="1.0" encoding="utf-8"?>
<!-- Generator: Adobe Illustrator 16.0.0, SVG Export Plug-In . SVG Version: 6.00 Build 0)  -->
<!DOCTYPE svg PUBLIC "-//W3C//DTD SVG 1.0//EN" "http://www.w3.org/TR/2001/REC-SVG-20010904/DTD/svg10.dtd">
<svg version="1.0" id="Layer_1" xmlns="http://www.w3.org/2000/svg" xmlns:xlink="http://www.w3.org/1999/xlink" x="0px" y="0px"
	 width="907px" height="329px" viewBox="0 0 907 329" enable-background="new 0 0 907 329" xml:space="preserve">
<g>
	<path fill="#0078AE" d="M315.462,276.806v-36.429h11.515c3.988,0,6.873,0.873,8.654,2.62c1.78,1.747,2.671,4.084,2.671,7.009
		c0,1.645-0.413,3.154-1.24,4.529c-0.826,1.376-2.01,2.388-3.551,3.036c1.984,0.521,3.48,1.625,4.488,3.309s1.512,3.577,1.512,5.68
		c0,3.115-0.961,5.602-2.884,7.459c-1.923,1.858-5.029,2.787-9.318,2.787H315.462z M318.759,256.314h9.083
		c4.569,0,6.854-2.103,6.854-6.309c0-1.945-0.51-3.526-1.53-4.744c-1.02-1.217-2.929-1.826-5.728-1.826h-8.68V256.314z
		 M318.759,273.746h8.989c5.438,0,8.158-2.396,8.158-7.187c0-2.498-0.617-4.319-1.85-5.467c-1.233-1.146-3.305-1.719-6.214-1.719
		h-9.083V273.746z"/>
	<path fill="#0078AE" d="M350.677,264.224c-0.174-1.62-0.261-3.498-0.261-5.633c0-2.134,0.087-4.012,0.261-5.633
		c0.174-1.62,0.545-3.288,1.115-5.004c0.569-1.716,1.332-3.131,2.289-4.245c0.957-1.115,2.277-2.028,3.96-2.739
		c1.684-0.712,3.676-1.067,5.977-1.067c2.3,0,4.291,0.355,5.971,1.067c1.68,0.711,2.997,1.624,3.951,2.739
		c0.954,1.114,1.711,2.529,2.271,4.245c0.56,1.716,0.93,3.384,1.112,5.004c0.182,1.621,0.272,3.499,0.272,5.633
		c0,2.135-0.091,4.013-0.272,5.633c-0.182,1.621-0.552,3.289-1.112,5.005c-0.56,1.716-1.317,3.13-2.271,4.245
		c-0.955,1.114-2.271,2.027-3.951,2.739c-1.68,0.711-3.67,1.067-5.971,1.067c-2.301,0-4.293-0.356-5.977-1.067
		c-1.684-0.712-3.004-1.625-3.96-2.739c-0.957-1.115-1.72-2.529-2.289-4.245C351.222,267.513,350.851,265.845,350.677,264.224z
		 M354.104,253.563c-0.134,1.407-0.202,3.083-0.202,5.027c0,1.945,0.067,3.621,0.202,5.028s0.411,2.814,0.83,4.222
		s0.992,2.55,1.72,3.427c0.727,0.878,1.708,1.589,2.941,2.135s2.708,0.818,4.423,0.818c1.715,0,3.19-0.272,4.423-0.818
		c1.233-0.546,2.213-1.257,2.941-2.135c0.727-0.877,1.3-2.02,1.72-3.427c0.418-1.407,0.691-2.814,0.818-4.222s0.19-3.083,0.19-5.028
		c0-1.944-0.063-3.62-0.19-5.027s-0.399-2.814-0.818-4.222c-0.419-1.407-0.993-2.55-1.72-3.428
		c-0.728-0.877-1.708-1.589-2.941-2.134c-1.233-0.546-2.708-0.818-4.423-0.818c-1.716,0-3.19,0.272-4.423,0.818
		c-1.233,0.545-2.214,1.257-2.941,2.134c-0.728,0.878-1.301,2.021-1.72,3.428S354.238,252.156,354.104,253.563z"/>
	<path fill="#0078AE" d="M389.993,276.806v-36.429h11.408c4.332,0,7.4,0.873,9.202,2.62c1.803,1.747,2.704,4.289,2.704,7.625
		c0,5.281-2.238,8.507-6.712,9.677l8.704,16.507h-3.842l-8.159-15.985c-0.364,0.032-0.901,0.048-1.613,0.048h-8.396v15.938H389.993z
		 M393.29,257.809h8.989c2.94,0,4.913-0.62,5.917-1.862c1.004-1.24,1.506-3.012,1.506-5.312c0-2.3-0.502-4.075-1.506-5.324
		s-2.977-1.874-5.917-1.874h-8.989V257.809z"/>
	<path fill="#0078AE" d="M425.966,276.806v-36.429h2.467l19.566,29.669l-0.095-29.669h3.297v36.429h-2.472l-19.561-29.67
		l0.095,29.67H425.966z"/>
</g>
<g>
	<path fill="#0078AE" d="M479.391,276.806v-36.429h3.392v36.429H479.391z"/>
</g>
<g>
	<path fill="#0078AE" d="M496.831,276.806v-36.429h2.467l19.566,29.669l-0.095-29.669h3.296v36.429h-2.472l-19.561-29.67
		l0.095,29.67H496.831z"/>
</g>
<g>
	<path fill="#0078AE" d="M547.534,243.436v-3.059h23.408v3.059h-10.056v33.37h-3.297v-33.37H547.534z"/>
</g>
<g>
	<path fill="#0078AE" d="M582.27,276.806v-36.429h3.297v15.938h18.167v-15.938h3.297v36.429h-3.297v-17.432h-18.167v17.432H582.27z"
		/>
	<path fill="#0078AE" d="M620.14,276.806v-36.429h21.108v3.059h-17.812v12.879h16.127v3.06h-16.127v14.372h17.812v3.06H620.14z"/>
</g>
<g>
</g>
<g>
	<path fill="#0078AE" d="M667.696,265.92c-0.482-2.166-0.724-4.609-0.724-7.329c0-2.719,0.241-5.162,0.724-7.328
		s1.257-4.127,2.324-5.882s2.558-3.107,4.471-4.056s4.182-1.423,6.807-1.423c3.731,0,6.886,0.562,9.463,1.684v3.249
		c-3.083-1.248-6.198-1.873-9.345-1.873c-0.031,0-0.07,0-0.118,0c-3.764,0-6.511,1.415-8.241,4.245
		c-1.731,2.83-2.598,6.625-2.598,11.384c0,4.76,0.866,8.555,2.598,11.385c1.73,2.83,4.478,4.245,8.241,4.245
		c3.21,0,6.364-0.625,9.463-1.874v3.249c-2.562,1.123-5.668,1.685-9.32,1.685c-0.048,0-0.095,0-0.143,0
		c-2.625,0-4.894-0.475-6.807-1.423c-1.913-0.949-3.403-2.301-4.471-4.056C668.953,270.046,668.179,268.086,667.696,265.92z"/>
	<path fill="#0078AE" d="M703.159,276.806v-36.429h3.297v33.369h16.862v3.06H703.159z"/>
</g>
<g>
	<path fill="#0078AE" d="M734.263,264.224c-0.174-1.62-0.261-3.498-0.261-5.633c0-2.134,0.087-4.012,0.261-5.633
		c0.174-1.62,0.546-3.288,1.115-5.004s1.332-3.131,2.288-4.245c0.957-1.115,2.277-2.028,3.961-2.739
		c1.684-0.712,3.677-1.067,5.977-1.067c2.301,0,4.291,0.355,5.971,1.067c1.68,0.711,2.997,1.624,3.952,2.739
		c0.954,1.114,1.711,2.529,2.271,4.245c0.561,1.716,0.931,3.384,1.112,5.004c0.182,1.621,0.272,3.499,0.272,5.633
		c0,2.135-0.091,4.013-0.272,5.633c-0.182,1.621-0.552,3.289-1.112,5.005c-0.56,1.716-1.316,3.13-2.271,4.245
		c-0.955,1.114-2.272,2.027-3.952,2.739c-1.68,0.711-3.67,1.067-5.971,1.067c-2.3,0-4.293-0.356-5.977-1.067
		c-1.684-0.712-3.004-1.625-3.961-2.739c-0.956-1.115-1.719-2.529-2.288-4.245S734.437,265.845,734.263,264.224z M737.69,253.563
		c-0.135,1.407-0.202,3.083-0.202,5.027c0,1.945,0.067,3.621,0.202,5.028c0.134,1.407,0.411,2.814,0.83,4.222
		c0.418,1.407,0.992,2.55,1.719,3.427c0.728,0.878,1.708,1.589,2.941,2.135s2.707,0.818,4.423,0.818s3.19-0.272,4.424-0.818
		s2.213-1.257,2.94-2.135c0.728-0.877,1.301-2.02,1.72-3.427s0.691-2.814,0.818-4.222c0.126-1.407,0.189-3.083,0.189-5.028
		c0-1.944-0.063-3.62-0.189-5.027c-0.127-1.407-0.399-2.814-0.818-4.222s-0.992-2.55-1.72-3.428
		c-0.728-0.877-1.707-1.589-2.94-2.134c-1.233-0.546-2.708-0.818-4.424-0.818s-3.189,0.272-4.423,0.818
		c-1.233,0.545-2.214,1.257-2.941,2.134c-0.727,0.878-1.301,2.021-1.719,3.428C738.102,250.749,737.824,252.156,737.69,253.563z"/>
</g>
<g>
	<path fill="#0078AE" d="M773.286,265.397v-25.021h3.297v24.476c0,6.245,3.193,9.368,9.581,9.368s9.582-3.123,9.582-9.368v-24.476
		h3.297v25.021c0,1.977-0.317,3.708-0.95,5.194s-1.404,2.645-2.314,3.475s-1.986,1.502-3.229,2.016
		c-1.242,0.515-2.357,0.842-3.347,0.984s-2.002,0.214-3.039,0.214c-1.036,0-2.049-0.071-3.035-0.214
		c-0.987-0.143-2.104-0.47-3.353-0.984c-1.247-0.514-2.325-1.186-3.233-2.016s-1.678-1.988-2.31-3.475
		S773.286,267.374,773.286,265.397z"/>
</g>
<g>
	<path fill="#0078AE" d="M811.919,276.806v-36.429h9.89c2.878,0,5.341,0.454,7.388,1.363c2.048,0.909,3.637,2.214,4.768,3.913
		c1.13,1.7,1.948,3.602,2.455,5.704c0.506,2.104,0.759,4.515,0.759,7.233c0,2.72-0.253,5.131-0.759,7.234
		c-0.507,2.103-1.325,4.004-2.455,5.703c-1.131,1.7-2.72,3.005-4.768,3.914c-2.047,0.909-4.51,1.363-7.388,1.363H811.919z
		 M815.216,273.746h6.807c7.779,0,11.669-5.043,11.669-15.131c0-10.119-3.89-15.18-11.669-15.18h-6.807V273.746z"/>
</g>
<path fill="#0078AE" d="M353.11,128.6l-5.815,6.006c-4.888-4.643-9.681-6.965-14.356-6.965c-2.973,0-5.522,0.975-7.64,2.91
	c-2.12,1.945-3.175,4.211-3.175,6.801c0,2.282,0.866,4.465,2.609,6.528c1.736,2.115,5.389,4.593,10.958,7.446
	c6.782,3.495,11.394,6.847,13.834,10.061c2.391,3.257,3.585,6.937,3.585,11.001c0,5.746-2.038,10.629-6.121,14.605
	c-4.071,3.997-9.167,5.995-15.274,5.995c-4.085,0-7.973-0.88-11.676-2.626c-3.708-1.757-6.782-4.167-9.211-7.247l5.692-6.462
	c4.648,5.287,9.577,7.91,14.785,7.91c3.648,0,6.752-1.153,9.323-3.481c2.555-2.328,3.834-5.071,3.834-8.219
	c0-2.585-0.853-4.896-2.539-6.921c-1.699-1.981-5.522-4.501-11.473-7.515c-6.389-3.273-10.739-6.495-13.045-9.686
	c-2.306-3.175-3.451-6.812-3.451-10.905c0-5.34,1.836-9.766,5.511-13.318c3.681-3.522,8.323-5.282,13.936-5.282
	C339.926,119.235,346.497,122.351,353.11,128.6"/>
<path fill="#0078AE" d="M396.927,119.236c10.818,0,19.786,3.91,26.899,11.733c6.462,7.143,9.7,15.58,9.7,25.341
	c0,9.793-3.418,18.348-10.249,25.69c-6.837,7.326-15.622,10.988-26.35,10.988c-10.779,0-19.588-3.662-26.425-10.988
	c-6.831-7.342-10.25-15.897-10.25-25.69c0-9.711,3.233-18.144,9.703-25.284C377.065,123.171,386.055,119.236,396.927,119.236
	 M396.892,128.13c-7.465,0-13.87,2.768-19.237,8.323c-5.355,5.558-8.036,12.274-8.036,20.157c0,5.075,1.227,9.824,3.67,14.215
	c2.448,4.382,5.746,7.787,9.902,10.17c4.165,2.383,8.731,3.568,13.701,3.568c4.97,0,9.536-1.185,13.692-3.568
	c4.165-2.383,7.468-5.788,9.911-10.17c2.443-4.391,3.664-9.14,3.664-14.215c0-7.883-2.689-14.599-8.069-20.157
	C410.707,130.898,404.308,128.13,396.892,128.13"/>
<rect x="443.506" y="93.766" fill="#0078AE" width="9.126" height="97.535"/>
<path fill="#0078AE" d="M464.691,120.915l9.14,0.063v32.724c0,7.984,0.429,13.482,1.301,16.479
	c1.292,4.298,3.773,7.706,7.451,10.187c3.664,2.495,8.031,3.73,13.113,3.73c5.071,0,9.386-1.208,12.927-3.64
	c3.536-2.421,5.979-5.61,7.321-9.564c0.909-2.697,1.368-8.429,1.368-17.192v-32.724l9.123-0.063V155.4
	c0,9.69-1.136,16.988-3.398,21.887c-2.276,4.916-5.697,8.763-10.249,11.534c-4.564,2.768-10.283,4.167-17.163,4.167
	c-6.872,0-12.607-1.399-17.212-4.167c-4.604-2.771-8.049-6.651-10.315-11.621c-2.268-4.987-3.406-12.46-3.406-22.45V120.915z"/>
<polygon fill="#0078AE" points="549.197,94.97 558.326,94.97 558.326,120.915 572.734,120.915 572.734,128.842 558.326,128.842 
	558.326,191.303 549.197,191.303 549.197,128.842 536.947,128.842 536.947,120.915 549.197,120.915 "/>
<path fill="#0078AE" d="M584.146,92.088c2.119,0,3.942,0.727,5.459,2.189c1.5,1.467,2.248,3.227,2.248,5.282
	c0,2.03-0.748,3.768-2.248,5.232c-1.517,1.462-3.34,2.186-5.459,2.186c-2.097,0-3.9-0.724-5.4-2.186
	c-1.505-1.464-2.265-3.202-2.265-5.232c0-2.055,0.76-3.815,2.265-5.282C580.246,92.815,582.05,92.088,584.146,92.088
	 M579.604,120.916h9.136v70.388h-9.136V120.916z"/>
<path fill="#0078AE" d="M635.311,119.236c10.823,0,19.777,3.91,26.906,11.733c6.465,7.143,9.687,15.58,9.687,25.341
	c0,9.793-3.416,18.348-10.236,25.69c-6.831,7.326-15.62,10.988-26.356,10.988c-10.782,0-19.589-3.662-26.418-10.988
	c-6.842-7.342-10.264-15.897-10.264-25.69c0-9.711,3.238-18.144,9.715-25.284C615.453,123.171,624.443,119.236,635.311,119.236
	 M635.277,128.13c-7.465,0-13.886,2.768-19.234,8.323c-5.363,5.558-8.029,12.274-8.029,20.157c0,5.075,1.215,9.824,3.664,14.215
	c2.437,4.382,5.742,7.787,9.904,10.17c4.159,2.383,8.723,3.568,13.695,3.568c4.962,0,9.531-1.185,13.701-3.568
	c4.156-2.383,7.454-5.788,9.898-10.17c2.443-4.391,3.667-9.14,3.667-14.215c0-7.883-2.701-14.599-8.071-20.157
	C649.091,130.898,642.69,128.13,635.277,128.13"/>
<path fill="#0078AE" d="M683.325,120.915h9.143v12.597c3.579-4.807,7.566-8.4,11.91-10.753c4.372-2.358,9.105-3.522,14.256-3.522
	c5.208,0,9.845,1.334,13.893,3.992c4.026,2.67,7.006,6.274,8.942,10.802c1.915,4.508,2.883,11.564,2.883,21.111v36.161h-9.132
	v-33.478c0-8.085-0.287-13.471-0.842-16.184c-0.888-4.635-2.825-8.146-5.782-10.482c-2.973-2.342-6.85-3.517-11.618-3.517
	c-5.473,0-10.353,1.804-14.682,5.424c-4.317,3.604-7.172,8.088-8.544,13.411c-0.874,3.481-1.284,9.837-1.284,19.089v25.737h-9.143
	V120.915z"/>
<path fill="#0078AE" d="M794.277,128.6l-5.817,6.006c-4.899-4.643-9.682-6.965-14.361-6.965c-2.974,0-5.522,0.975-7.638,2.91
	c-2.117,1.945-3.181,4.211-3.181,6.801c0,2.282,0.872,4.465,2.609,6.528c1.752,2.115,5.392,4.593,10.963,7.446
	c6.782,3.495,11.389,6.847,13.834,10.061c2.386,3.257,3.591,6.937,3.591,11.001c0,5.746-2.044,10.629-6.121,14.605
	c-4.077,3.997-9.181,5.995-15.28,5.995c-4.082,0-7.967-0.88-11.675-2.626c-3.711-1.757-6.779-4.167-9.209-7.247l5.689-6.462
	c4.65,5.287,9.574,7.91,14.794,7.91c3.642,0,6.741-1.153,9.309-3.481c2.556-2.328,3.842-5.071,3.842-8.219
	c0-2.585-0.85-4.896-2.535-6.921c-1.702-1.981-5.527-4.501-11.479-7.515c-6.394-3.273-10.744-6.495-13.036-9.686
	c-2.312-3.175-3.465-6.812-3.465-10.905c0-5.34,1.836-9.766,5.519-13.318c3.671-3.522,8.318-5.282,13.934-5.282
	C781.085,119.235,787.654,122.351,794.277,128.6"/>
<g>
	<path fill="#0078AE" d="M235.597,180.656c4.132,2.383,8.662,3.569,13.602,3.569c4.932,0,9.468-1.186,13.608-3.569
		c4.131-2.382,7.405-5.787,9.834-10.17c2.426-4.391,3.642-9.14,3.642-14.214c0-7.883-2.683-14.6-8.017-20.158
		c-5.347-5.555-11.703-8.323-19.067-8.323c-7.413,0-13.79,2.768-19.102,8.323c-5.329,5.558-7.976,12.275-7.976,20.158
		c0,5.074,1.207,9.823,3.639,14.214C228.181,174.869,231.463,178.274,235.597,180.656z"/>
	<path fill="#0078AE" d="M254.699,111.129c-4.386-32.495-32.215-57.556-65.912-57.556c-19.432,0-36.915,8.335-49.079,21.621
		c-5.854-4.626-13.243-7.395-21.284-7.395c-18.979,0-34.363,15.383-34.363,34.363c0,3.373,0.494,6.628,1.4,9.708
		c-26.079,6.675-45.353,28.62-45.353,54.488c0,31.12,27.884,56.581,61.966,56.581h110.498V121.201h9.124v10.394
		c0.257-0.301,0.484-0.612,0.749-0.907c7.063-7.856,15.993-11.791,26.786-11.791c10.75,0,19.646,3.91,26.726,11.733
		c6.419,7.143,9.621,15.581,9.621,25.338c0,9.796-3.391,18.352-10.165,25.694c-6.787,7.325-15.517,10.987-26.182,10.987
		c-10.708,0-19.458-3.662-26.24-10.987c-0.459-0.498-0.866-1.014-1.295-1.522v42.8h19.616c34.079,0,61.964-25.461,61.964-56.581
		C303.277,139.434,282.398,116.757,254.699,111.129z M199.572,191.241h-9.135v-70.388h9.135V191.241z M200.438,104.729
		c-1.517,1.461-3.339,2.185-5.46,2.185c-2.096,0-3.899-0.724-5.399-2.185c-1.506-1.465-2.265-3.203-2.265-5.233
		c0-2.055,0.759-3.815,2.265-5.282c1.5-1.462,3.303-2.189,5.399-2.189c2.121,0,3.943,0.727,5.46,2.189
		c1.5,1.467,2.248,3.227,2.248,5.282C202.686,101.526,201.938,103.264,200.438,104.729z"/>
</g>
</svg>
